<?xml version="1.0" standalone="no"?>
<!DOCTYPE svg PUBLIC "-//W3C//DTD SVG 20010904//EN"
 "http://www.w3.org/TR/2001/REC-SVG-20010904/DTD/svg10.dtd">
<svg version="1.0" xmlns="http://www.w3.org/2000/svg"
 width="700.000000pt" height="700.000000pt" viewBox="0 0 700.000000 700.000000"
 preserveAspectRatio="xMidYMid meet">
<metadata>
Created by potrace 1.11, written by Peter Selinger 2001-2013
</metadata>
<g transform="translate(0.000000,700.000000) scale(0.100000,-0.100000)"
fill="#000000" stroke="none">
<path d="M2497 6655 c-1 -2 -51 -5 -112 -9 -154 -9 -404 -54 -429 -77 -6 -5
-17 -9 -26 -9 -9 0 -33 -9 -55 -20 -22 -11 -43 -20 -48 -20 -17 0 -143 -88
-180 -126 -51 -52 -88 -118 -102 -179 -7 -31 -11 -158 -11 -340 l1 -290 538
-3 537 -2 0 -35 0 -35 -777 -1 c-428 0 -785 -2 -793 -4 -8 -2 -30 -6 -48 -9
-223 -42 -423 -230 -511 -481 -43 -120 -77 -279 -86 -400 -5 -63 -6 -323 -1
-390 36 -535 252 -882 586 -941 61 -10 481 -11 487 -1 3 5 5 127 5 272 l1 263
31 4 32 3 -1 -535 c0 -294 3 -561 7 -594 26 -196 217 -376 484 -455 72 -21
134 -36 194 -46 19 -3 42 -8 50 -10 69 -18 527 -27 680 -13 96 9 263 36 293
47 12 5 24 9 27 9 20 0 106 29 164 55 145 63 245 151 294 255 l27 57 3 318 c2
174 0 318 -5 318 -4 1 -246 2 -538 3 l-530 1 0 35 0 35 775 1 c426 1 793 4
815 8 245 41 436 215 539 490 24 63 54 172 61 221 2 11 5 36 8 55 34 209 27
569 -13 755 -5 22 -11 54 -14 72 -11 58 -67 207 -108 283 -87 163 -206 270
-365 327 -41 15 -86 18 -303 18 l-255 0 -1 -297 c-2 -348 -7 -402 -46 -507
-14 -37 -35 -68 -66 -95 -25 -23 -62 -68 -84 -100 -21 -33 -50 -67 -66 -76
-33 -20 -103 -48 -134 -54 -13 -2 -35 -7 -50 -11 -27 -7 -28 -6 -28 33 l0 40
88 43 c116 56 208 146 257 252 19 40 36 84 39 98 3 13 9 45 14 71 14 69 14
1140 1 1208 -18 89 -64 168 -145 247 -144 142 -378 227 -714 259 -61 6 -387
13 -393 9z m-368 -453 c120 -89 51 -274 -100 -268 -74 3 -125 48 -139 124 -9
52 5 94 42 131 57 56 133 61 197 13z m463 -1774 c-4 -4 -75 -8 -157 -9 -107
-1 -170 -6 -220 -19 -38 -10 -92 -21 -120 -24 -164 -22 -307 -86 -392 -177
-67 -70 -78 -86 -96 -126 -15 -32 -27 -43 -57 -52 -58 -17 -59 -16 -45 33 70
231 251 363 520 379 97 5 573 1 567 -5z m33 2 c3 -5 1 -10 -4 -10 -6 0 -11 5
-11 10 0 6 2 10 4 10 3 0 8 -4 11 -10z m498 1 c4 -1 7 -12 7 -25 l0 -24 -140
0 c-137 1 -140 1 -140 23 0 12 2 24 4 26 3 3 240 3 269 0z m183 -1555 c54 -12
104 -81 104 -143 0 -50 -38 -110 -84 -132 -51 -25 -87 -26 -133 -5 -113 54
-116 213 -6 270 43 22 59 23 119 10z"/>
<path d="M4880 3479 c0 -5 4 -9 8 -9 12 0 112 -100 112 -112 0 -5 -12 -1 -27
10 -54 37 -58 34 -12 -9 67 -65 78 -85 74 -148 -2 -39 -15 -77 -49 -145 -25
-50 -54 -118 -65 -151 -18 -56 -23 -83 -37 -175 -5 -39 -5 -226 0 -256 2 -10
7 -41 10 -69 25 -176 131 -644 171 -757 14 -38 23 -68 20 -68 -4 0 -54 90
-147 265 -68 128 -148 293 -148 308 0 7 -7 25 -15 40 -8 15 -12 34 -9 42 3 8
-1 22 -10 30 -10 11 -14 25 -10 41 4 17 1 26 -10 30 -21 8 -20 19 5 54 21 28
21 30 6 77 -9 26 -34 82 -57 123 -23 41 -63 123 -90 182 -48 108 -127 238
-144 238 -15 0 1 -95 27 -159 13 -33 49 -104 80 -158 51 -89 103 -207 113
-258 6 -29 -16 -76 -40 -85 -12 -4 -31 -3 -43 3 -22 10 -110 163 -181 317 -21
47 -65 119 -97 160 -32 41 -60 77 -62 79 -2 2 -6 2 -9 -2 -18 -17 52 -180 155
-362 28 -49 58 -111 68 -138 27 -74 61 -109 114 -116 3 -1 4 -14 1 -29 -2 -18
2 -33 12 -41 9 -8 16 -22 16 -33 0 -25 39 -80 51 -73 5 4 13 -4 18 -17 5 -13
18 -30 29 -40 18 -14 136 -205 210 -338 78 -140 329 -579 415 -725 55 -93 109
-186 120 -205 10 -19 30 -53 43 -76 l24 -40 -58 4 c-103 6 -176 -51 -188 -148
-9 -77 18 -112 30 -38 16 98 65 148 126 127 30 -11 31 -13 24 -48 -15 -72 -10
-182 7 -164 4 4 10 28 14 53 14 92 50 139 97 124 15 -4 18 -3 13 6 -6 10 6 11
56 6 35 -4 65 -9 67 -11 2 -2 -13 -45 -34 -97 -20 -51 -39 -115 -41 -143 l-5
-50 19 30 c10 17 25 43 32 58 38 73 115 124 179 119 48 -3 139 -71 195 -145
16 -21 33 -35 38 -31 19 11 0 66 -39 113 -50 59 -74 106 -70 136 3 23 4 23 70
-21 70 -47 169 -139 189 -175 39 -74 161 -170 216 -172 62 -2 82 34 136 250
27 103 50 200 53 216 6 38 13 78 18 107 7 37 17 114 25 205 8 82 6 403 -3 442
-2 11 -8 43 -11 70 -20 138 -70 301 -132 433 -50 105 -151 263 -208 325 -65
70 -65 69 -44 134 28 92 40 247 26 341 -19 128 -45 200 -108 300 -60 94 -70
122 -72 189 -1 53 1 56 47 98 50 45 54 55 10 27 -47 -31 -36 -5 25 57 33 35
59 65 56 67 -6 6 -73 -17 -125 -43 -54 -27 -128 -100 -146 -145 l-14 -31 -57
30 c-56 29 -147 63 -209 77 -16 3 -78 8 -139 9 -144 5 -255 -20 -361 -79 l-42
-24 -30 47 c-33 50 -86 96 -142 123 -51 24 -130 47 -130 37z m1094 -1346 c-12
-71 -11 -187 2 -250 31 -148 80 -255 213 -473 230 -377 267 -440 301 -515 53
-115 83 -211 96 -305 7 -55 -2 -51 -10 5 -17 104 -107 319 -175 419 -17 24
-31 47 -31 51 0 3 -35 58 -79 123 -309 462 -379 640 -347 881 7 53 22 101 31
101 3 0 2 -17 -1 -37z m-547 -1106 c58 -72 115 -143 127 -157 12 -14 34 -41
48 -61 27 -35 27 -35 9 -69 -10 -18 -26 -39 -37 -47 -18 -12 -27 4 -152 250
-72 144 -125 252 -116 239 9 -12 64 -82 121 -155z m377 -330 l67 -32 -30 -23
c-69 -51 -120 -34 -126 42 -5 56 0 57 89 13z"/>
</g>
</svg>
